<svg xmlns="http://www.w3.org/2000/svg" viewBox="0 0 187.2 81.3" width="200" height="100"><g fill="#382F39"><path d="M42.5 58.5c2.2-2.2 3.2-5.1 3.2-8.8 0-3-.6-5.3-1.9-6.9-1.3-1.6-3.1-2.8-5.7-3.7 2.3-.6 4.1-1.7 5.2-3 1.1-1.4 1.7-3.4 1.7-6 0-1.8-.3-3.4-.9-4.8-.6-1.4-1.5-2.5-2.7-3.3-1.2-.8-2.5-1.5-4-1.9-1.5-.4-3.3-.6-5.2-.6h-9.1v42.3h10.6c3.7 0 6.7-1.1 8.8-3.3zM29.2 24h2.5c.6 0 1.3.1 2.2.1.9.1 1.5.2 2 .3.5.2 1 .4 1.6.7.6.3 1 .6 1.3 1.1.3.4.5 1 .7 1.6.2.6.3 1.4.3 2.2 0 5-2.5 7.5-7.5 7.5h-3V24zm0 33.2V42.1h3c2.6 0 4.5.6 5.7 1.8 1.2 1.2 1.8 3.1 1.8 5.7s-.6 4.5-1.8 5.7c-1.2 1.2-3.1 1.8-5.7 1.8h-3zM51 58.4c.9 1.2 2.1 2.2 3.6 2.8 1.5.6 3.3 1 5.5 1 2.1 0 3.9-.3 5.4-1 1.5-.7 2.7-1.6 3.6-2.9.9-1.3 1.6-2.7 2-4.4.4-1.7.6-3.6.6-5.8V32.9c0-4.5-.9-7.9-2.7-10.2-1.8-2.4-4.8-3.5-8.9-3.5-2.1 0-3.9.3-5.5.9-1.5.6-2.7 1.5-3.6 2.7-.9 1.2-1.6 2.7-2 4.3-.4 1.7-.6 3.6-.6 5.8v15.3c0 2.2.2 4.2.6 5.8.5 1.7 1.1 3.2 2 4.4zm3.5-27.1c0-2.5.4-4.3 1.2-5.5.8-1.2 2.3-1.8 4.4-1.8 2.1 0 3.6.6 4.4 1.8.8 1.2 1.2 3 1.2 5.5v18.3c0 2.5-.4 4.4-1.2 5.6-.8 1.3-2.3 1.9-4.4 1.9s-3.6-.6-4.4-1.9c-.8-1.3-1.2-3.2-1.2-5.6V31.3zM80.6 61.8h6V24.1c3.4.5 6.8 1.2 10.2 1.6v36.1h6V26.1c2.5 0 5-.4 7.5-1.2v-5.4c-12.5 4.3-24.9-4.3-37.4 0v5.4c2.5-.9 5-1.2 7.5-1.2v38.1z"/><path d="M139.1 42.1h4.5l6.1 19.6h6l-6.8-21.1c1.7-.6 3-1.8 3.9-3.5.9-1.7 1.3-3.8 1.3-6.3 0-4.1-1.1-7-3.4-8.7-2.3-1.7-5.7-2.6-10.2-2.6H133v42.3h6V42.1zm0-18.1h1.5c2.5 0 4.4.5 5.7 1.6 1.3 1.1 1.9 2.8 1.9 5.2 0 2.4-.6 4.1-1.9 5.2-1.3 1.1-3.1 1.6-5.7 1.6h-1.5V24zM158 19.5h6v42.3h-6zM112.9 61.8l2.3-10.6h7.5l2.3 10.6h6l-9.1-42.3h-6l-9.1 42.3h6.1zm6-33.2l3 18.1h-6l3-18.1z"/></g></svg>