<svg xmlns="http://www.w3.org/2000/svg" viewBox="0 0 234 81" width="250" height="100"><path fill="#382F39" d="M0 0 L234 0 L234 81 L0 81 Z"/><g fill="#ca9334"><path d="M46.7 48.8l.2.3-.6 2.5-5.2-.1c-3.6 0-7.2.4-7.2.4l-.2-.4.5-2.6c2.9-.2 3.5-.6 3.5-1.8l-.1-1.3-.4-3.4-3.8-.1-4.1.3-1.5 3.4a4 4 0 00-.4 1.6c0 .8.5 1.1 1.7 1.1h1.8l.1.3-.6 2.7s-3.5-.3-6.1-.3l-5.1.1.7-2.9c1.3-.2 2.2-1 3.1-2.9l10-22.1 6.9-.7.5.2s2 15.2 3.4 22.7c.3 2.1 1 2.8 2.9 3zm-16-9.8h2.9l3.1-.2-1.2-9.8h-.6l-4.2 10z"/><path d="M60.2 31.8l5.8-1.1c.9.7 1.4 2.2 1.4 3.8 0 3.1-2.8 8.6-8.3 16.5-5.6 8-9.3 11.2-13 11.2-2.1 0-4-1-4.4-2.2.2-1.1 1-3.3 1.8-4.8h.9c.4 1.6 1.6 2.7 3.1 2.7 1.8 0 3.4-1.1 5.9-4.2-.7-7.2-1.5-13.7-2.2-17.8-.2-1.1-.6-1.5-1.6-1.5l-1.8.1.2-2.5 7.8-.9.5.4c.5 4.2.7 9.5.7 16.1h.5c2.9-5 4.6-9.1 4.6-11.2 0-1.4-.8-2.5-2.2-3.3l.3-1.3zM73.9 43.5c0 2.6 1 4.3 2.8 4.3 1.6 0 3.2-1.3 4.4-3.5l.7.1 1.4 1.8c-1.6 3.4-5.2 5.9-8.5 5.9-3.7 0-6.1-3-6.1-7.7 0-7.1 5.4-13.6 11.2-13.6 2.9 0 4.7 1.5 4.7 4.1.1 3.9-2.9 6.2-10.6 8.6zm.1-2.7c4-1.3 5.8-2.8 5.8-4.7 0-1-.5-1.5-1.4-1.5-2 0-3.8 2.5-4.4 6.2zM91.9 46.9c.4 0 .7-.3 2.9-2.2l.8.1.7 1.5c-3.8 4.1-5.9 5.7-7.6 5.7-1.4 0-2.1-.7-2.1-2.1 0-1.1 4-24.8 4-26.3 0-1.1-.5-1.6-1.7-1.6h-1.5l.4-2.6c3.3 0 8.5-.4 8.5-.4l.5.7s-3.8 17.8-5 26.9l.1.3zM103 43.5c0 2.6 1 4.3 2.8 4.3 1.6 0 3.2-1.3 4.4-3.5l.7.1 1.4 1.8c-1.6 3.4-5.2 5.9-8.5 5.9-3.7 0-6.1-3-6.1-7.7 0-7.1 5.4-13.6 11.2-13.6 2.9 0 4.7 1.5 4.7 4.1.1 3.9-2.9 6.2-10.6 8.6zm.1-2.7c4-1.3 5.8-2.8 5.8-4.7 0-1-.5-1.5-1.4-1.5-2 0-3.8 2.5-4.4 6.2zm10.5-18s-4.2 2.6-8.3 5.7l-.7-.2-1.3-1.7c3.6-3.5 7.4-7.5 7.4-7.5h.6l2.4 3.1-.1.6zM131.7 46.8c.4 0 .7-.2 2.9-2.2l.8.1.7 1.5c-3.8 4.1-5.9 5.7-7.6 5.7-1.4 0-2.1-.6-2.1-1.9 0-2.3 3-9.8 3-12.2 0-1-.4-1.5-1.1-1.5-1.4 0-4.1 4.4-6.6 10.8l-.4 3.1c-.1.7-2.6 1.6-4.6 1.6l-.6-.7s2.2-13.2 2.4-15.2c.1-1.3-.4-1.8-1.7-1.8h-1.5l.4-2.6c3.3 0 8.4-.4 8.4-.4l.5.7s-1.4 4.4-2.1 8.6h.3c2.5-5.1 4.9-8.6 7.1-9.9 2.9 0 4.9 1.8 4.9 4.4 0 2.5-2.6 8.7-3.2 11.6l.1.3zM144.3 52l.7-2.9c2.5-.5 3.3-1.2 3.6-3.5l2.2-17.2c.2-1.6-.1-2.2-1.1-2.2l-1.4.1-.3-.4.7-2.6 5.9.1 6.1-.3c5.4 0 8.7 2.2 8.7 6 0 3.2-1.9 5.7-5.4 7.6 3.3 1.1 5.2 3.2 5.2 6 0 5.6-4.8 9.4-11.9 9.4-1.5 0-4.8-.4-6.5-.4-2.6-.2-6.5.3-6.5.3zm10.8-12.8l-1 6.5c-.3 1.8.8 2.6 3.7 2.6 3 0 4.9-1.9 4.9-5 0-2.1-1.2-3.6-3.7-4.2l-3.9.1zm4.5-3.5s3.5-1.2 3.5-5.4c0-2.5-1.7-3.7-5.3-3.7-.6 0-.7.2-.9.8l-1.3 7.9 4 .4zM172 44.2c0-7.6 4.7-13.5 10.8-13.5 4.1 0 6.4 2.7 6.4 7.4 0 7.9-4.7 13.9-10.9 13.9-3.9 0-6.3-2.9-6.3-7.8zm11.7-4.2c0-3.6-.9-5.4-2.7-5.4-2.2 0-3.6 3.3-3.6 8.2 0 3.6 1 5.8 2.6 5.8 2.3-.1 3.7-3.2 3.7-8.6zM211.1 43.7l.3.6c-.1.7-3.3 3.8-4 3.8-3.6 0-5.1-1.8-4.6-5.6l1.5-10.7c.2-1.8 0-2.1-2.1-2.1-1.9 0-2.1.2-2.4 1.9l-2.1 14.6c-.3 2-.4 4.2-.4 4.2l-.4.4-5.1.9-.3-.6c.3-.7 3-17.9 3-19.8 0-1.1-.3-1.4-1.1-1.4-1.2 0-2.9 2.1-2.9 2.1h-.3l-1.1-1.8v-.3l3.6-3.7.7-.3c4.7 0 11.7.4 14.1.4 2.9 0 7.3-.4 7.3-.4l.2.3-.9 3-.3.3c-3.2 0-3.8.4-4.3 2.3-.8 3.7-1.5 7.5-1.5 9 .1 2.2.9 2.9 3.1 2.9"/></g></svg>