<svg width="994.9952" height="662.08019" xmlns="http://www.w3.org/2000/svg">
 <title>love</title>

 <g>
  <title>background</title>
  <rect fill="none" id="canvas_background" height="602" width="802" y="-1" x="-1"/>
 </g>
 <g>
  <title>Layer 1</title>
  <path id="svg_1" fill="#f2f2f2" d="m994.9376,380.87016a287.1373,287.1373 0 0 1 -163.69,254.01001a282.14734,282.14734 0 0 1 -121.25,27.2q-9.045,0 -17.96,-0.56a3110.25767,3110.25767 0 0 0 -389.08,0q-8.91,0.555 -17.96,0.56a282.05767,282.05767 0 0 1 -138.92,-36.35a287.20949,287.20949 0 0 1 -146.02,-244.86c-3.16,-160.68 124.03,-292.05 283.61,-292.79c84.99,-0.39 161.37,36.69 213.83,95.77c52.46,-59.08 128.84,-96.16 213.83,-95.77c159.58,0.74 286.77,132.11 283.61,292.78999z"/>
  <path id="svg_2" fill="#2f2e41" d="m831.2476,634.88017a282.14734,282.14734 0 0 1 -121.25,27.2q-9.045,0 -17.96,-0.56a3110.25767,3110.25767 0 0 0 -389.08,0q-8.91,0.555 -17.96,0.56a282.05767,282.05767 0 0 1 -138.92,-36.35c64.13,-27.78 189.39,-46.65 333.42,-46.65c159.34006,0.00001 295.71005,23.08998 351.75,55.8z"/>
  <path id="svg_3" stroke-miterlimit="10" stroke="#3f3d56" fill="none" d="m633.87505,237.1573a22.982,22.982 0 0 0 -23.87427,-3.78181c-11.87754,5.18011 -17.05037,19.7316 -16.21984,32.66294s6.21884,25.06152 9.7085,37.54077c4.68719,16.7617 5.9044,34.92858 0.41078,51.44356s-18.41986,31.06888 -35.18671,35.73763c-15.5625,4.33341 -32.071,-0.01139 -47.63369,-4.344"/>
  <path id="svg_4" fill="#ca9334" d="m662.05087,211.31894a13.56878,13.56878 0 1 0 -27.09253,-1.5626l-1.56259,27.09252l27.09252,1.5626a13.56877,13.56877 0 1 0 1.5626,-27.09252z"/>
  <path id="svg_5" fill="#ca9334" d="m632.91827,281.86177a13.56877,13.56877 0 1 0 -27.09252,-1.56259l-1.5626,27.09252l27.09253,1.5626a13.56878,13.56878 0 0 0 1.56259,-27.09253z"/>
  <path id="svg_6" fill="#ca9334" d="m593.88093,206.29371a13.56878,13.56878 0 1 0 -17.42812,20.80162l20.80162,17.42812l17.42817,-20.80162a13.56878,13.56878 0 1 0 -20.80162,-17.42812l-0.00005,0z"/>
  <path id="svg_7" stroke-miterlimit="10" stroke="#3f3d56" fill="none" d="m755.9216,224.80567a22.982,22.982 0 0 0 -22.00429,-10.00471c-12.82825,1.829 -21.69035,14.47687 -24.33443,27.16222s-0.68165,25.81258 -0.64225,38.7705c0.05292,17.40465 -3.61307,35.23938 -13.3074,49.69429s-26.03034,25.03972 -43.435,25.07349c-16.15453,0.03136 -30.90917,-8.55392 -44.75552,-16.8755"/>
  <path id="svg_8" fill="#ca9334" d="m789.9621,207.40623a13.56877,13.56877 0 0 0 -25.69741,-8.72294l-8.723,25.69741l25.69741,8.72294a13.56878,13.56878 0 1 0 8.723,-25.69741z"/>
  <path id="svg_9" fill="#ca9334" d="m743.09115,267.64009a13.56878,13.56878 0 0 0 -25.69741,-8.723l-8.72294,25.69741l25.69741,8.723a13.56877,13.56877 0 1 0 8.72294,-25.69741z"/>
  <path id="svg_10" fill="#ca9334" d="m725.59379,184.40372a13.56878,13.56878 0 1 0 -22.33948,15.40761l15.4076,22.33948l22.33949,-15.4076a13.56878,13.56878 0 0 0 -15.40761,-22.33949z"/>
  <path id="svg_11" stroke-miterlimit="10" stroke="#3f3d56" fill="none" d="m697.44383,43.90509a22.982,22.982 0 0 1 22.28762,9.35655c7.36973,10.65816 4.10487,25.75269 -3.41049,36.30866s-18.48356,18.03079 -28.02146,26.80225c-12.811,11.78146 -23.412,26.5847 -27.43806,43.51737s-0.70079,36.112 11.09475,48.91c10.94829,11.87877 27.27047,16.878 42.78223,21.38973"/>
  <path id="svg_12" fill="#ca9334" d="m687.09654,7.10247a13.56878,13.56878 0 1 1 23.855,12.9378l-12.93781,23.855l-23.855,-12.93781a13.56877,13.56877 0 1 1 12.9378,-23.855l0.00001,0.00001z"/>
  <path id="svg_13" fill="#ca9334" d="m674.717,82.41347a13.56878,13.56878 0 1 1 23.855,12.9378l-12.93781,23.855l-23.855,-12.93781a13.56877,13.56877 0 1 1 12.9378,-23.855l0.00001,0.00001z"/>
  <path id="svg_14" fill="#ca9334" d="m747.69596,38.72688a13.56878,13.56878 0 1 1 3.86257,26.86126l-26.86126,3.86257l-3.86256,-26.86126a13.56877,13.56877 0 1 1 26.86125,-3.86257z"/>
  <rect id="svg_15" fill="#fbbebe" height="13" width="25" y="331.08019" x="440.49763"/>
  <rect id="svg_16" opacity="0.1" height="13" width="25" y="331.08019" x="440.49763"/>
  <circle id="svg_17" fill="#2f2e41" r="32" cy="112.08019" cx="394.49763"/>
  <path id="svg_18" fill="#fbbebe" d="m466.9976,324.58018s-10,-3 -12,-2s7,9 7,9l5,-7z"/>
  <path id="svg_19" opacity="0.1" d="m466.9976,324.58018s-10,-3 -12,-2s7,9 7,9l5,-7z"/>
  <path id="svg_20" fill="#3f3d56" d="m397.9976,580.58018s23,3 27,3s15,4 9,9s-44,12 -49,9s-12,-12 -7,-13s20,-8 20,-8z"/>
  <polygon id="svg_21" fill="#fbbebe" points="356.998 617.58 348.998 631.58 358.998 636.58 377.998 640.58 387.998 627.58 383.998 612.58 356.998 617.58"/>
  <path id="svg_22" fill="#2f2e41" d="m409.9976,514.58018s-13,55 -11,58s6,11 2,14s-20,4 -20,4l5,-29l7,-35l17,-12z"/>
  <path id="svg_23" fill="#ca9334" d="m373.9976,398.58018l13,59s2,29 -3,40s-32,127 -32,127s28,1 34,-2s16.11941,-72.26515 16.11941,-72.26515s32.88059,-65.73485 31.88059,-78.73485s4.9685,-79.037 -3.51575,-84.01852s-56.48425,11.01852 -56.48425,11.01852z"/>
  <path id="svg_24" fill="#3f3d56" d="m375.9976,635.58018l12,-12s32,16 37,17s16,9 5,12s-52,1 -62,0s-30,-2 -27,-8s8,-27 8,-27s2.76378,-3.82086 4.38189,1.08957s2.61811,11.91043 6.61811,11.91043s16,5 16,5z"/>
  <path id="svg_25" fill="#a0616a" d="m529.9976,381.58018l28,-2l19,10l-2,12l-8,2s-22,-9 -35,-6s-2,-16 -2,-16z"/>
  <path id="svg_26" fill="#2f2e41" d="m562.9976,385.58018s11,12.03168 0,16.51584c0,0 2,3.48416 10,4.48416s19,8 22,8s16,-2 8,-13s-40,-35 -40,-35s-9,-4 -12,4s-4.58292,9.82735 -4.58292,9.82735s14.58292,3.17265 16.58292,5.17265z"/>
  <path id="svg_27" fill="#a0616a" d="m478.9976,481.58018s9,34 9,36s12,-8 12,-8l2,-18s-8,-8 -8,-13s-15,3 -15,3z"/>
  <path id="svg_28" fill="#2f2e41" d="m496.9976,505.58018s-7,9 -12,6l3,34s2,17 9,10s14,-42 14,-42s10,-21 2,-24a83.28173,83.28173 0 0 0 -14,-4s0,21 -2,20z"/>
  <path id="svg_29" fill="#ef4843" d="m431.9976,391.58018l30,62s10,35 14,36s19,-6 21,-7s-17,-40 -17,-47s-23,-46 -23,-46l-25,2z"/>
  <path id="svg_30" opacity="0.1" d="m431.9976,391.58018l30,62s10,35 14,36s19,-6 21,-7s-17,-40 -17,-47s-23,-46 -23,-46l-25,2z"/>
  <path id="svg_31" fill="#ef4843" d="m452.9976,283.58018s1,21 -3,35s5,60 5,60s15,1 19,0s58,-2 61,0s2,37 0,36s-54,-12 -79,-8s-28,-2 -29,-4s-18,-56 -18,-56l-6,-26l-8,-28l5,-27l53,18z"/>
  <circle id="svg_32" fill="#a0616a" r="27" cy="126.08019" cx="392.49763"/>
  <circle id="svg_33" fill="#fbbebe" r="27" cy="189.58019" cx="341.99763"/>
  <path id="svg_34" fill="#a0616a" d="m399.9976,144.58018s18,12 15,19s-11,15 -11,15l-1,11l15,5l38,2s-2,-34 -14,-43s-26,-15 -28,-23s-14,14 -14,14z"/>
  <path id="svg_35" fill="#a0616a" d="m449.61381,169.24581c-6.54432,-12.22565 -24.95678,-10.74009 -28.77273,2.59157a12.062,12.062 0 0 0 1.15655,9.7428c7,12 12,21 12,21l22,-2s0.43257,-18.60048 -6.38382,-31.33437z"/>
  <path id="svg_36" fill="#2f2e41" d="m407.28398,174.994s-26.28638,16.58618 -24.28638,27.58618s4,30 4,37s7,29 17,33s10,-7 24,6s29,19 28,21s4,-18 -4,-26s-17,-31 -9,-41s15,-36 15,-36s-1,-6 -7,-5s-43,-3 -45,-8a8.44311,8.44311 0 0 1 1.28638,-8.58618z"/>
  <path id="svg_37" fill="#2f2e41" d="m403.55275,183.47388s27.44485,-29.8937 31.44485,-28.8937s15.51919,12.83425 15.51919,12.83425l-15.51919,-10.83425l-31.44488,28.57874l0.00003,-1.68504z"/>
  <path id="svg_38" fill="#fbbebe" d="m364.9976,194.58018s3.75627,40.44582 8.87813,44.22291s-38.87813,2.77709 -38.87813,2.77709s10,-31 4,-35s26,-12 26,-12z"/>
  <path id="svg_39" fill="#3f3d56" d="m374.9976,227.58018s-34,-9 -38,-4s-12,48 -12,48s4,29 11,50s16,95 23,95s19,-11 22,-11s21,-9 32,-7a38.93341,38.93341 0 0 0 19,-1s-5,-42 -17,-53s-18,-87 -18,-87s-17,-32 -22,-30z"/>
  <path id="svg_40" fill="#fbbebe" d="m426.9976,322.58018s11.37059,15.43307 22.6853,16.21654l6.3147,-0.21654s-10,26 -5,27s20,-19 15,-30s-20,-28 -20,-28l-19,15z"/>
  <path id="svg_41" fill="#fbbebe" d="m466.9976,322.58018s-17,16 -10,23s16,0 16,0s7,-10 -6,-23z"/>
  <path id="svg_42" opacity="0.1" d="m466.9976,322.58018s-17,16 -10,23s16,0 16,0s7,-10 -6,-23z"/>
  <circle id="svg_43" fill="#2f2e41" r="32" cy="106.08019" cx="401.49763"/>
  <circle id="svg_44" fill="#2f2e41" r="19" cy="79.08019" cx="416.49763"/>
  <path id="svg_45" fill="#2f2e41" d="m401.4976,73.08018a19.00069,19.00069 0 0 1 17,-18.89319a19.19334,19.19334 0 0 0 -2,-0.10681a19,19 0 1 0 2,37.89319a19.00068,19.00068 0 0 1 -17,-18.89319z"/>
  <ellipse id="svg_46" fill="#2f2e41" ry="19" rx="25.5" cy="119.08019" cx="390.99763"/>
  <path id="svg_47" fill="#2f2e41" d="m343.1236,179.55621c-0.35032,1.87684 -1.1833,3.763 -0.47965,5.6957c0.52139,1.43211 1.7908,2.56741 2.55311,3.92377c1.53462,2.73052 0.51782,6.22586 -2.12233,7.29572a7.14659,7.14659 0 0 0 -4.9115,-0.83115a3.19888,3.19888 0 0 0 -2.47848,3.4676c0.352,2.30917 3.04352,3.78843 4.41254,5.84839a15.13121,15.13121 0 0 1 1.67206,4.95876c0.67355,2.69657 1.859,5.374 1.996,8.07161s-1.17541,5.5488 -3.85209,5.935c-2.25074,0.32471 -4.67047,-1.20085 -6.29822,-3.05284s-2.72607,-4.04868 -4.2172,-5.99843c-4.84525,-6.33544 -13.12635,-9.28788 -18.73431,-15.03718c-7.18577,-7.36687 -8.70777,-18.27964 -6.13684,-26.97819c1.07964,-3.65289 2.86588,-7.14472 5.90146,-9.37355c3.18561,-2.339 7.43992,-3.08705 11.00748,-4.906c3.81511,-1.94511 6.74181,-5.05667 10.116,-7.59641s7.55424,-4.57614 12.15934,-3.89124c3.212,0.4777 6.25874,2.22624 9.44649,3.051a15.28308,15.28308 0 0 0 10.41661,-0.85878l-2.96158,3.17831a15.08272,15.08272 0 0 0 6.71233,1.01723a8.13783,8.13783 0 0 1 -4.50531,4.06928a8.0857,8.0857 0 0 0 5.61584,1.69277c-2.19839,2.5114 -4.55962,5.12475 -7.9464,5.99975c-1.65893,0.4286 -3.46576,0.40787 -5.17823,0.68773c-3.65018,0.59653 -6.72335,2.52351 -9.70364,4.41464c-1.56494,0.993 -3.53334,2.11918 -3.5222,4.18051c0.00934,1.71658 1.39678,3.11788 1.03872,5.036z"/>
  <path id="svg_48" fill="#3f3d56" d="m354.9976,237.58018s-9,33 7,40s49,33 55,42s13,12 13,12s24,-20 19,-26s-25,-24 -25,-24s-51,-55 -69,-44z"/>
  <path id="svg_49" fill="#a0616a" d="m433.9976,238.58018s-36.739,-10.50232 -47.8695,-12.25116s-40.1305,1.25116 -34.1305,6.25116s41,9 41,9l42,16l-1,-19z"/>
  <path id="svg_50" fill="#2f2e41" d="m433.9976,197.58018s3,20 3,27s5,13 1,13s-7,-4 -7,0s-6,28 0,28s21,-4 24,-4s13,-2 12,-13s-5,-23 -3,-25s3,-12 1,-14s-7,-15 -7,-15l-24,3z"/>
  <g id="svg_51" opacity="0.3">
   <path id="svg_52" fill="#ca9334" d="m645.36738,401.12863a7.00852,7.00852 0 1 0 -1.6712,13.91706l13.91706,1.67121l1.6712,-13.91707a7.00852,7.00852 0 1 0 -13.91706,-1.6712z"/>
  </g>
  <g id="svg_53" opacity="0.3">
   <path id="svg_54" fill="#ca9334" d="m813.09688,334.25227a7.00853,7.00853 0 0 0 -6.88292,12.21078l12.21078,6.88291l6.88292,-12.21077a7.00853,7.00853 0 1 0 -12.21078,-6.88292z"/>
  </g>
  <g id="svg_55" opacity="0.3">
   <path id="svg_56" fill="#ca9334" d="m738.36738,429.12863a7.00852,7.00852 0 1 0 -1.6712,13.91706l13.91706,1.67121l1.6712,-13.91707a7.00852,7.00852 0 1 0 -13.91706,-1.6712z"/>
  </g>
 </g>
</svg>