<svg id="27b24c83-6930-4149-a780-3773eb0b718f" data-name="Layer 1" xmlns="http://www.w3.org/2000/svg" xmlns:xlink="http://www.w3.org/1999/xlink" width="982.89" height="803.03" viewBox="0 0 874.47 747.94"><style>@keyframes sello{10%,90%{transform:scale(1);opacity:1}}</style><defs><linearGradient id="267af776-2606-4521-bdeb-63ce55981a74" x1="769.97" y1="1002.12" x2="769.97" y2="454.75" gradientTransform="rotate(90 961.385 567.605)" gradientUnits="userSpaceOnUse"><stop offset="0" stop-color="gray" stop-opacity=".25"/><stop offset=".54" stop-color="gray" stop-opacity=".12"/><stop offset="1" stop-color="gray" stop-opacity=".1"/></linearGradient><linearGradient id="1fcd4820-0a7c-4847-8840-19b179cc7b2e" x1="683.95" y1="639.26" x2="683.95" y2="526.2" gradientTransform="rotate(8.58 3132.77 755.811)" xlink:href="#267af776-2606-4521-bdeb-63ce55981a74"/><linearGradient id="206f4f91-e50e-44b0-9342-2d65f420a366" x1="475.23" y1="384.44" x2="475.23" y2="-162.93" gradientTransform="translate(-72.73 343.57)" xlink:href="#267af776-2606-4521-bdeb-63ce55981a74"/><linearGradient id="d34e425e-14d9-4818-8053-17a79178d3b1" x1="393.32" y1="20.38" x2="393.32" y2="-95.86" gradientTransform="rotate(-9.31 2548.498 729.095)" xlink:href="#267af776-2606-4521-bdeb-63ce55981a74"/><linearGradient id="769baff5-4c30-4a3c-b602-35bea0051736" x1="480.71" y1="712.84" x2="480.71" y2="165.47" xlink:href="#267af776-2606-4521-bdeb-63ce55981a74"/><linearGradient id="435858fe-786b-4ccc-9937-2ef148119b2b" x1="-513.22" y1="427.6" x2="-513.22" y2="308.75" gradientTransform="matrix(-1 0 0 1 48 0)" xlink:href="#267af776-2606-4521-bdeb-63ce55981a74"/><linearGradient id="8c5c6193-e47d-4d82-a8e6-773c48c7bbd6" x1="652.07" y1="747.94" x2="652.07" y2="579.17" xlink:href="#267af776-2606-4521-bdeb-63ce55981a74"/></defs><path transform="rotate(-81.42 675.036 432.75)" fill="url(#267af776-2606-4521-bdeb-63ce55981a74)" d="M526.87 178.11h547.37v396.16H526.87z" opacity=".5"/><path transform="rotate(-81.42 675.338 430.755)" fill="#f5f5f5" d="M533.22 181.16h535.27v386.08H533.22z"/><path transform="rotate(8.58 1227.732 -775.99)" fill="#e0e0e0" d="M663.37 338.64h278.65v16.89H663.37z"/><path transform="rotate(8.58 1221.48 -734.232)" fill="#e0e0e0" d="M657.07 380.39h278.65v16.89H657.07z"/><path transform="rotate(8.58 1314.654 -899.476)" fill="#e0e0e0" d="M817.86 215.12h143.55v16.89H817.86z"/><path transform="rotate(8.58 1308.336 -857.712)" fill="#ca9334" d="M824.23 256.87h118.22v16.89H824.23z"/><path transform="rotate(8.58 1198.48 -695.037)" fill="#e0e0e0" d="M650.96 419.62h244.88v16.89H650.96z"/><path transform="rotate(8.58 1175.48 -655.843)" fill="#e0e0e0" d="M644.85 458.85h211.1v16.89h-211.1z"/><path transform="rotate(8.58 1156.683 -616.026)" fill="#e0e0e0" d="M638.7 498.71h185.77v16.89H638.7z"/><path transform="rotate(8.58 1175.38 -570.508)" fill="#e0e0e0" d="M632.12 544.23h236.43v16.89H632.12z"/><path transform="rotate(8.58 1098.214 -539.45)" fill="#ca9334" d="M626.63 575.28h92.88v16.89h-92.88z"/><path d="M793 227.53a56.36 56.36 0 10-93.8 33.16v.25a19.29 19.29 0 005.71 5l.11-.24c2.27 2.63 12.72 7.87 25.35 9.74h.28c8 1.22 16.89 1.11 25.14-1.87 0 0 .09-.14.24-.4a20.08 20.08 0 005.8-2.81l.18-.62A56.3 56.3 0 00793 227.53z" transform="translate(-162.77 -76.03)" fill="url(#1fcd4820-0a7c-4847-8840-19b179cc7b2e)" opacity=".5"/><circle cx="736.97" cy="217.05" r="54.67" transform="rotate(-81.42 611.44 273.601)" fill="#f5f5f5"/><path d="M712.1 235.08s-13-.89-13.17 23.09a18.71 18.71 0 005.54 4.83l10.94-23.43zm41.8 6.31s12.72 3 5.78 25.95a18.71 18.71 0 01-6.72 3l-3.55-25.61z" transform="translate(-162.77 -76.03)" fill="#fda57d"/><path d="M718.46 196.72s-8.82 16.91-11.91 14.73c0 0 28.06 32.73 60.75 9.16a85.9 85.9 0 00-9.82-18z" transform="translate(-162.77 -76.03)" fill="#333"/><circle cx="739.39" cy="198.16" r="24.23" transform="rotate(-81.42 613.867 254.714)" fill="#333"/><path d="M753.65 241.35l-41.8-6.3-6.42 16.13s-3.46 7.39-1.12 11.23 27.79 15.59 49 8a22.05 22.05 0 002.66-13.85c-1.05-8.14-.47-.64-.47-.64z" transform="translate(-162.77 -76.03)" opacity=".1"/><path d="M754.21 241.44l-41.8-6.3-6.41 16.12s-3.46 7.39-1.12 11.23 27.79 15.59 49 8a22.05 22.05 0 002.66-13.85c-1.05-8.14-.47-.64-.47-.64z" transform="translate(-162.77 -76.03)" opacity=".1"/><path d="M753.9 241.39l-41.8-6.3-6.42 16.13s-3.46 7.39-1.12 11.23 27.79 15.59 49 8a22.05 22.05 0 002.66-13.85c-1.05-8.14-.47-.64-.47-.64z" transform="translate(-162.77 -76.03)" fill="#ca9334"/><path d="M725.28 224.29h16.91v15.26a6.73 6.73 0 01-6.73 6.73H732a6.73 6.73 0 01-6.73-6.73v-15.26h.01z" transform="rotate(8.58 1158.824 -887.719)" opacity=".1"/><path d="M725.37 223.67h16.91v15.26a6.73 6.73 0 01-6.73 6.73h-3.45a6.73 6.73 0 01-6.73-6.73v-15.26z" transform="rotate(8.58 1158.907 -888.395)" fill="#fda57d"/><path d="M726.77 224.94a24.33 24.33 0 0016.71 2.57l.31-2.05-16.72-2.52z" transform="translate(-162.77 -76.03)" opacity=".1"/><circle cx="738.61" cy="203.36" r="24.23" transform="rotate(-81.42 613.083 259.916)" fill="#fda57d"/><path d="M717.07 190.81l45.7 6.89s-1.12-19-18.57-20.47-27.13 13.58-27.13 13.58z" transform="translate(-162.77 -76.03)" fill="#333"/><ellipse cx="715.3" cy="198.8" rx="4.23" ry="2.25" transform="rotate(-81.42 589.763 255.354)" fill="#fda57d"/><ellipse cx="762.11" cy="205.86" rx="4.23" ry="2.25" transform="rotate(-81.42 636.58 262.415)" fill="#fda57d"/><path d="M717 191.43l45.7 6.89s-1.12-19-18.57-20.47S717 191.43 717 191.43z" transform="translate(-162.77 -76.03)" opacity=".1"/><path transform="matrix(.99 -.16 .16 .99 -230.95 -4.95)" fill="url(#206f4f91-e50e-44b0-9342-2d65f420a366)" d="M204.42 180.64h396.16v547.37H204.42z" opacity=".5"/><path transform="rotate(-9.31 -146.141 1413.713)" fill="#f5f5f5" d="M209.14 184.7h386.08v535.27H209.14z"/><path transform="rotate(-9.31 -152.77 1387.335)" fill="#e0e0e0" d="M256.27 417.52h278.65v16.89H256.27z"/><path transform="rotate(-9.31 -145.902 1429)" fill="#e0e0e0" d="M263.1 459.18h278.65v16.89H263.1z"/><path transform="rotate(-9.31 -107.958 1243.125)" fill="#e0e0e0" d="M368.64 273.27h143.55v16.89H368.64z"/><path transform="rotate(-9.31 -101.09 1284.79)" fill="#ca9334" d="M388.13 314.93h118.22v16.89H388.13z"/><path transform="rotate(-9.31 -155.76 1473.384)" fill="#e0e0e0" d="M270.15 503.58h244.88v16.89H270.15z"/><path transform="rotate(-9.31 -165.617 1517.767)" fill="#e0e0e0" d="M277.2 547.97h211.1v16.89H277.2z"/><path transform="rotate(-9.31 -171.28 1561.503)" fill="#e0e0e0" d="M284.2 591.69h185.77v16.89H284.2z"/><path transform="rotate(-9.31 -139.471 1599.018)" fill="#e0e0e0" d="M290.69 629.25h236.43v16.89H290.69z"/><path transform="rotate(-9.31 -203.458 1652.284)" fill="#ca9334" d="M298.47 682.53h92.88v16.89h-92.88z"/><path d="M354.81 311.49a57.94 57.94 0 10-81.3 62.06l.08.25a19.83 19.83 0 007.16 3.06v-.27c3.05 1.86 14.93 3.69 27.88 1.53h.28c8.21-1.33 16.87-4.25 24-9.77 0 0 0-.16.1-.46a20.64 20.64 0 004.79-4.58v-.66a57.88 57.88 0 0017.01-51.16z" transform="translate(-162.77 -76.03)" fill="url(#d34e425e-14d9-4818-8053-17a79178d3b1)" opacity=".5"/><circle cx="297.63" cy="320.86" r="56.2" transform="rotate(-9.31 -250.72 1282.25)" fill="#f5f5f5"/><path d="M277.19 346.48s-13 3.25-5.6 26.75a19.24 19.24 0 006.95 3l3.31-26.38zm42.88-7.03s13.39-1.09 13.84 23.57a19.24 19.24 0 01-5.63 5l-11.56-23.94z" transform="translate(-162.77 -76.03)" fill="#382f39"/><circle cx="292.23" cy="301.74" r="24.91" transform="rotate(-9.31 -256.087 1263.145)" fill="#333"/><path d="M319.82 339.49l-42.88 7-1.19 17.81s-1 8.33 2.45 11.34 32.12 6.48 50.41-7.68a22.67 22.67 0 00-1.77-14.39c-3.6-7.63-.67-.48-.67-.48z" transform="translate(-162.77 -76.03)" fill="#382f39"/><path d="M320.39 339.4l-42.88 7-1.19 17.81s-1 8.33 2.45 11.34 32.12 6.48 50.41-7.68a22.67 22.67 0 00-1.77-14.39c-3.6-7.63-.67-.48-.67-.48z" transform="translate(-162.77 -76.03)" fill="#382f39"/><path d="M320.07 339.45l-42.88 7-1.19 17.84s-1 8.33 2.45 11.34 32.12 6.48 50.41-7.68a22.67 22.67 0 00-1.77-14.39c-3.6-7.63-.67-.48-.67-.48z" transform="translate(-162.77 -76.03)" fill="#382f39"/><path d="M289.72 328.54h17.38v15.87a6.73 6.73 0 01-6.73 6.73h-3.93a6.73 6.73 0 01-6.73-6.73v-15.87h.01z" transform="rotate(-9.31 -249.916 1301.23)" opacity=".1"/><path d="M289.62 327.9H307v15.87a6.73 6.73 0 01-6.73 6.73h-3.93a6.73 6.73 0 01-6.73-6.73V327.9h.01z" transform="rotate(-9.31 -249.99 1300.607)" fill="#fda57d"/><path d="M288.34 331.92a25 25 0 0017.16-2.76l-.35-2.11-17.15 2.82z" transform="translate(-162.77 -76.03)" opacity=".1"/><circle cx="293.11" cy="307.08" r="24.91" transform="rotate(-9.31 -255.223 1268.47)" fill="#fda57d"/><path d="M268.18 302.22l46.89-7.68s-7.11-18.28-24.63-14.16-22.26 21.84-22.26 21.84z" transform="translate(-162.77 -76.03)" opacity=".1"/><path d="M268.07 301.59L315 293.9s-7.11-18.28-24.63-14.16-22.3 21.85-22.3 21.85z" transform="translate(-162.77 -76.03)" fill="#333"/><ellipse cx="268.86" cy="309.97" rx="2.32" ry="4.35" transform="matrix(.99 -.16 .16 .99 -209.36 -28.46)" fill="#fda57d"/><ellipse cx="316.89" cy="302.1" rx="2.32" ry="4.35" transform="rotate(-9.31 -231.456 1263.544)" fill="#fda57d"/><path fill="url(#769baff5-4c30-4a3c-b602-35bea0051736)" d="M282.63 165.47h396.16v547.37H282.63z" opacity=".5"/><path fill="#fff" d="M287.67 169.5h386.08v535.27H287.67z"/><path d="M502 368a59.24 59.24 0 1192.29 49.17v.26a20.28 20.28 0 01-6.72 4.28l-.08-.26c-2.77 2.38-14.45 6.19-27.87 6.15h-.29c-8.5 0-17.72-1.5-25.84-5.89 0 0-.07-.16-.18-.45a21.1 21.1 0 01-5.59-3.83l-.09-.67A59.18 59.18 0 01502 368z" transform="translate(-162.77 -76.03)" fill="url(#435858fe-786b-4ccc-9937-2ef148119b2b)" opacity=".5"/><circle cx="398.46" cy="291.97" r="57.46" fill="#f5f5f5"/><path d="M538.69 389.89S525 391 528.62 416a19.67 19.67 0 006.52 4.15l7.7-26.07zm44.43 0S596.81 391 593.19 416a19.67 19.67 0 01-6.52 4.15L579 394z" transform="translate(-162.77 -76.03)" fill="#be7c5e"/><path d="M539.28 349s-1.05 3.07-2.55 6.62c-3.26 7.76.46 37.58 8.26 40.76 8.75 3.57 20.26 5.85 32.21 1.49 10.39-3.79 13.59-37.73 6.25-46-.86-1-1.76-1.93-2.7-2.87z" transform="translate(-162.77 -76.03)" fill="#333"/><circle cx="398.5" cy="271.2" r="25.47" fill="#333"/><path d="M582.86 389.89h-44.43l-4.15 17.77s-2.44 8.23.59 11.85 31.33 11.85 52.13.59a23.18 23.18 0 00.59-14.81c-2.37-8.29-.59-.59-.59-.59z" transform="translate(-162.77 -76.03)" opacity=".1"/><path d="M583.45 389.89H539l-4.15 17.77s-2.44 8.23.59 11.85 31.33 11.85 52.13.59a23.18 23.18 0 00.59-14.81c-2.37-8.29-.59-.59-.59-.59z" transform="translate(-162.77 -76.03)" opacity=".1"/><path d="M583.12 389.89h-44.43l-4.15 17.77s-2.44 8.23.59 11.85 31.33 11.85 52.13.59a23.18 23.18 0 00.59-14.81c-2.37-8.29-.59-.59-.59-.59z" transform="translate(-162.77 -76.03)" fill="#ca9334"/><path d="M389.55 299.11h17.77v16.38a6.73 6.73 0 01-6.73 6.73h-4.32a6.73 6.73 0 01-6.73-6.73v-16.38z" opacity=".1"/><path d="M389.55 298.45h17.77v16.38a6.73 6.73 0 01-6.73 6.73h-4.32a6.73 6.73 0 01-6.73-6.73v-16.38z" fill="#be7c5e"/><path d="M552.35 377a25.58 25.58 0 0017.77 0v-2.18h-17.77z" transform="translate(-162.77 -76.03)" opacity=".1"/><circle cx="398.5" cy="276.73" r="25.47" fill="#be7c5e"/><path d="M536.91 343.09h48.58s-4.15-19.62-22.51-18.36-26.07 18.36-26.07 18.36z" transform="translate(-162.77 -76.03)" fill="#333"/><ellipse cx="373.56" cy="275.65" rx="2.37" ry="4.44" fill="#be7c5e"/><ellipse cx="423.32" cy="275.65" rx="2.37" ry="4.44" fill="#be7c5e"/><path d="M536.91 343.74h48.58s-4.15-19.62-22.51-18.36-26.07 18.36-26.07 18.36z" transform="translate(-162.77 -76.03)" opacity=".1"/><path fill="#e0e0e0" d="M339.15 401.6H617.8v16.89H339.15zm0 42.22H617.8v16.89H339.15zM474.26 266.5h143.55v16.89H474.26z"/><path fill="#ca9334" d="M486.92 308.72h118.22v16.89H486.92z"/><path fill="#e0e0e0" d="M339.15 486.04h244.88v16.89H339.15zm0 42.22h211.1v16.89h-211.1zm0 42.23h185.77v16.89H339.15zm0 42.22h236.43v16.89H339.15z"/><path fill="#ca9334" d="M339.15 654.93h92.88v16.89h-92.88z"/><g style="animation:sello 5s infinite;transform-origin:75% 90%"><circle cx="652.07" cy="663.56" r="84.39" fill="url(#8c5c6193-e47d-4d82-a8e6-773c48c7bbd6)" opacity=".5"/><circle cx="652.07" cy="663.56" r="79.42" fill="#382f39"/><path fill="#fff" d="M617.6 652.96l29.78 27.3 42.19-62.04 14.9 12.41-57.09 74.45-42.19-47.15 12.41-4.97z"/></g></svg>